<svg width="32" height="32" viewBox="0 0 32 32" fill="none" xmlns="http://www.w3.org/2000/svg">
<path fill-rule="evenodd" clip-rule="evenodd" d="M19.1629 5C19.1629 5 17.1733 5.01085 15.7419 6.91691C14.468 8.60958 14.7937 10.0599 14.7937 10.0599C14.7937 10.0599 16.5184 10.3637 18.0357 8.51916C19.4599 6.79394 19.1629 5 19.1629 5ZM17.7919 10.7352C17.2947 10.9208 16.886 11.0734 16.5797 11.0734C16.1973 11.0734 15.736 10.9086 15.1999 10.7172C14.4591 10.4526 13.5755 10.137 12.5604 10.135C9.86937 10.135 7 12.3667 7 16.6229C7 20.9493 10.3893 26.3267 13.0727 26.3302C13.4906 26.3302 14.008 26.1563 14.5815 25.9636C15.2948 25.7239 16.0949 25.455 16.8986 25.455C17.6195 25.455 18.244 25.6714 18.8604 25.885C19.4609 26.0931 20.0538 26.2985 20.7206 26.2985C23.6621 26.2985 25.8369 20.626 25.8369 20.626C25.8369 20.626 22.7246 19.5084 22.7246 16.2714C22.7246 13.4035 25.222 12.2191 25.222 12.2191C25.222 12.2191 23.9467 10.0788 20.6978 10.0788C19.5503 10.0788 18.5643 10.4468 17.7919 10.7352Z" fill="white"/>
</svg>
