<svg width="32" height="32" viewBox="0 0 32 32" fill="none" xmlns="http://www.w3.org/2000/svg">
<path d="M15.9996 9.45746C18.0026 9.45746 19.3537 10.3226 20.1241 11.0456L23.1344 8.10635C21.2855 6.38782 18.8796 5.33301 15.9996 5.33301C11.8277 5.33301 8.22478 7.72709 6.4707 11.2115L9.9196 13.8901C10.7848 11.3182 13.1789 9.45746 15.9996 9.45746Z" fill="#EA4335"/>
<path d="M26.24 16.2364C26.24 15.3594 26.1689 14.7194 26.0148 14.0557H16V18.0142H21.8785C21.76 18.9979 21.12 20.4794 19.6978 21.4749L23.0637 24.0823C25.0785 22.2216 26.24 19.4838 26.24 16.2364Z" fill="#4285F4"/>
<path d="M9.93153 18.1097C9.70635 17.446 9.57598 16.7349 9.57598 16.0001C9.57598 15.2653 9.70635 14.5541 9.91968 13.8904L6.47079 11.2119C5.74782 12.6578 5.33301 14.2815 5.33301 16.0001C5.33301 17.7186 5.74782 19.3423 6.47079 20.7882L9.93153 18.1097Z" fill="#FBBC05"/>
<path d="M15.9995 26.6664C18.8795 26.6664 21.2973 25.7183 23.0632 24.0827L19.6973 21.4753C18.7965 22.1035 17.5876 22.542 15.9995 22.542C13.1787 22.542 10.7847 20.6812 9.93132 18.1094L6.48242 20.7879C8.2365 24.2723 11.8276 26.6664 15.9995 26.6664Z" fill="#34A853"/>
</svg>
