<svg width="20" height="20" viewBox="0 0 20 20" fill="none" xmlns="http://www.w3.org/2000/svg">
<path opacity="0.4" d="M12.5003 1.04199C12.7926 1.04199 13.0458 1.24453 13.1101 1.52964L13.559 3.52263C13.8867 4.97764 15.023 6.1139 16.478 6.44166L18.471 6.8906C18.7562 6.95483 18.9587 7.20807 18.9587 7.50033C18.9587 7.79258 18.7562 8.04583 18.471 8.11005L16.478 8.55899C15.023 8.88674 13.8867 10.023 13.559 11.478L13.1101 13.471C13.0458 13.7562 12.7926 13.9587 12.5003 13.9587C12.2081 13.9587 11.9548 13.7562 11.8906 13.471L11.4417 11.478C11.1139 10.023 9.97766 8.88674 8.52266 8.55899L6.52964 8.11005C6.24453 8.04583 6.04199 7.79258 6.04199 7.50033C6.04199 7.20807 6.24453 6.95483 6.52964 6.8906L8.52266 6.44166C9.97766 6.1139 11.1139 4.97764 11.4417 3.52263L11.8906 1.52964C11.9548 1.24453 12.2081 1.04199 12.5003 1.04199Z" fill="#888FA8"/>
<path d="M5.83366 9.375C6.12592 9.375 6.37916 9.5775 6.44338 9.86267L6.76405 11.2862C6.98302 12.2582 7.74209 13.0173 8.71408 13.2362L10.1377 13.5569C10.4228 13.6212 10.6253 13.8744 10.6253 14.1667C10.6253 14.4589 10.4228 14.7122 10.1377 14.7764L8.71408 15.0971C7.74209 15.316 6.98302 16.0751 6.76405 17.0471L6.44338 18.4707C6.37916 18.7558 6.12592 18.9583 5.83366 18.9583C5.5414 18.9583 5.28816 18.7558 5.22393 18.4707L4.90327 17.0471C4.6843 16.0751 3.92523 15.316 2.9532 15.0971L1.52964 14.7764C1.24453 14.7122 1.04199 14.4589 1.04199 14.1667C1.04199 13.8744 1.24453 13.6212 1.52964 13.5569L2.9532 13.2362C3.92523 13.0173 4.6843 12.2582 4.90327 11.2862L5.22393 9.86267C5.28816 9.5775 5.5414 9.375 5.83366 9.375Z" fill="#888FA8"/>
</svg>
