<svg width="22" height="23" viewBox="0 0 22 23" fill="none" xmlns="http://www.w3.org/2000/svg">
<path fill-rule="evenodd" clip-rule="evenodd" d="M6.24926 11.5005C6.24926 12.2785 6.29421 13.0292 6.37472 13.75H0.48584C0.33131 13.0244 0.25 12.2717 0.25 11.5C0.25 10.7283 0.33131 9.9756 0.48584 9.25H6.37484C6.29425 9.9711 6.24926 10.7222 6.24926 11.5005ZM6.5989 7.75H0.92217C2.22621 4.2469 5.30452 1.60734 9.0647 0.92374C8.89594 1.26674 8.7199 1.63864 8.5418 2.01487C8.46891 2.16886 8.39534 2.3243 8.32212 2.47806C7.65698 3.87486 6.99021 5.65965 6.5989 7.75ZM8.12706 7.75H13.8715C13.5031 5.92901 12.9133 4.36448 12.3221 3.12296C12.2333 2.93639 12.1445 2.74779 12.0565 2.56088C11.7326 1.8729 11.4193 1.20775 11.155 0.75109C11.1034 0.75037 11.0517 0.75 11 0.75C10.9478 0.75 10.8956 0.75037 10.8436 0.75112C10.5792 1.20778 10.2661 1.87287 9.9421 2.56087C9.8541 2.74778 9.7653 2.93638 9.6764 3.12296C9.0852 4.36448 8.49547 5.92901 8.12706 7.75ZM14.1136 9.25H7.88495C7.79815 9.9689 7.74926 10.7202 7.74926 11.5005C7.74926 12.2805 7.79811 13.0314 7.88483 13.75H14.1137C14.2004 13.0314 14.2493 12.2805 14.2493 11.5005C14.2493 10.7202 14.2004 9.9689 14.1136 9.25ZM15.3996 7.75C15.0083 5.65965 14.3416 3.87486 13.6764 2.47806C13.6032 2.3243 13.53 2.16957 13.4571 2.01558C13.2789 1.63914 13.1025 1.26661 12.9337 0.92345C16.6946 1.60658 19.7736 4.2464 21.0778 7.75H15.3996ZM21.5142 9.25H15.6237C15.7043 9.9711 15.7493 10.7222 15.7493 11.5005C15.7493 12.2785 15.7043 13.0292 15.6238 13.75H21.5142C21.6687 13.0244 21.75 12.2717 21.75 11.5C21.75 10.7283 21.6687 9.9756 21.5142 9.25ZM8.12686 15.25H13.8717C13.5033 17.0714 12.9134 18.6363 12.3221 19.8781C12.2342 20.0626 12.1464 20.2492 12.0593 20.4341C11.7343 21.124 11.4201 21.7911 11.155 22.2489C11.1034 22.2496 11.0517 22.25 11 22.25C10.9478 22.25 10.8956 22.2496 10.8435 22.2489C10.5785 21.7911 10.2642 21.1239 9.9393 20.434C9.8522 20.2492 9.7643 20.0626 9.6764 19.8781C9.0851 18.6363 8.49525 17.0714 8.12686 15.25ZM15.3998 15.25H21.0778C19.7736 18.7535 16.6947 21.3933 12.934 22.0765C13.1039 21.7313 13.2812 21.3567 13.4606 20.9779C13.5323 20.8264 13.6044 20.6742 13.6764 20.523C14.3417 19.1259 15.0085 17.3408 15.3998 15.25ZM0.92217 15.25H6.59871C6.99 17.3408 7.65687 19.1259 8.32212 20.523C8.39416 20.6742 8.46622 20.8264 8.53795 20.9779C8.71722 21.3565 8.89456 21.7311 9.0644 22.0762C5.30437 21.3925 2.22618 18.753 0.92217 15.25Z" fill="#18243E"/>
</svg>
