<svg width="113" height="26" viewBox="0 0 113 26" fill="none" xmlns="http://www.w3.org/2000/svg">
<path d="M77.3242 20.4664H71.6996V12.3991C71.6996 11.78 71.6343 11.3493 71.5037 11.1094C71.3731 10.8695 71.137 10.7496 70.7967 10.7496C70.1654 10.7496 69.8492 11.3047 69.8492 12.414V20.4653H64.2246V12.398C64.2246 11.7788 64.157 11.3482 64.0218 11.1083C63.8866 10.8684 63.6482 10.7484 63.3079 10.7484C62.6858 10.7484 62.3753 11.3036 62.3753 12.4128V20.4641H56.7506V11.2579C56.7506 9.57865 57.3167 8.15185 58.4498 6.9775C59.583 5.80316 60.9557 5.21599 62.5701 5.21599C64.1845 5.21599 65.7278 5.91626 67.0512 7.31564C68.5247 5.91626 69.9993 5.21599 71.4727 5.21599C73.3472 5.21599 74.8516 5.89569 75.9848 7.2551C76.8774 8.3152 77.3231 9.85967 77.3231 11.8885V20.4653L77.3242 20.4664Z" fill="#18243E"/>
<path d="M79.9904 26V13.5255C79.9904 11.2362 80.592 9.37188 81.795 7.93251C82.4871 7.10316 83.3671 6.44288 84.4349 5.95281C85.5028 5.46274 86.5981 5.21828 87.721 5.21828C89.9564 5.21828 91.8412 5.96766 93.3754 7.46758C94.9096 8.96749 95.6761 10.8067 95.6761 12.9851C95.6761 15.1636 94.9142 16.9343 93.3903 18.473C91.8664 20.0129 90.0618 20.7817 87.9765 20.7817C87.6351 20.7817 87.1344 20.7463 86.4733 20.6766V14.4988C86.9339 14.8689 87.3956 15.054 87.8562 15.054C88.4383 15.054 88.9367 14.8392 89.3526 14.4097C89.7685 13.9801 89.977 13.4706 89.977 12.8801C89.977 12.2895 89.7616 11.788 89.3297 11.3733C88.8989 10.9586 88.3821 10.7507 87.7806 10.7507C86.3369 10.7507 85.6151 11.7457 85.6151 13.7345V20.4664C85.5062 21.0216 84.9127 23.7336 82.4355 25.1855C81.5235 25.7201 80.6344 25.9212 79.9904 25.9989V26Z" fill="#18243E"/>
<path d="M105.256 5.20343C107.381 5.20343 109.203 5.96538 110.722 7.49042C112.242 9.01432 113.001 10.8421 113.001 12.9703C113.001 15.0985 112.231 16.9685 110.693 18.4879C109.154 20.0072 107.297 20.7669 105.121 20.7669C102.945 20.7669 101.085 20.0049 99.5408 18.4799C97.9963 16.956 97.2252 15.1191 97.2252 12.9692C97.2252 10.8192 97.9975 8.93893 99.5408 7.44358C101.084 5.94938 102.99 5.20228 105.256 5.20228V5.20343ZM105.105 10.7359C104.503 10.7359 103.992 10.9529 103.571 11.3881C103.149 11.8234 102.939 12.3557 102.939 12.9851C102.939 13.6146 103.152 14.1344 103.579 14.5742C104.005 15.014 104.514 15.2344 105.105 15.2344C105.696 15.2344 106.22 15.0151 106.646 14.5742C107.072 14.1344 107.285 13.6043 107.285 12.9851C107.285 12.366 107.074 11.8234 106.654 11.3881C106.232 10.9529 105.717 10.7359 105.105 10.7359Z" fill="#18243E"/>
<path d="M34.4034 14.0715C34.0654 13.2856 34.1445 11.2682 34.1445 10.079H35.4323C36.1163 10.079 36.6709 9.5261 36.6709 8.84411V6.9638C36.6709 6.28181 36.1163 5.72891 35.4323 5.72891H34.1445V1.23489C34.1445 0.5529 33.5899 0 32.9059 0H32.4922C32.1462 0 31.8174 0.143937 31.5825 0.396397L28.8487 3.34482C28.6367 3.57329 28.5198 3.87258 28.5198 4.1833V12.2803C28.5198 14.4097 28.9507 16.1186 29.8134 17.4083C30.4952 18.4182 31.4003 19.2178 32.5278 19.8073C33.6552 20.3967 34.856 20.6915 36.1301 20.6915H36.7763V14.7969C36.1908 14.7764 34.6486 14.6393 34.4034 14.0704V14.0715Z" fill="#18243E"/>
<path d="M24.3229 14.316C23.9849 13.5301 24.0639 11.5127 24.0639 10.3235V1.47935C24.0639 0.797364 23.5094 0.244464 22.8253 0.244464H22.4117C22.0657 0.244464 21.7368 0.388401 21.502 0.640861L18.7681 3.58928C18.5562 3.81775 18.4393 4.11705 18.4393 4.42777V12.5248C18.4393 14.6541 18.8701 16.3631 19.7329 17.6528C20.4146 18.6627 21.3198 19.4623 22.4472 20.0518C23.5747 20.6412 24.7754 20.9359 26.0495 20.9359H26.6958V15.0414C26.1103 15.0208 24.5681 14.8837 24.3229 14.3148V14.316Z" fill="#18243E"/>
<path d="M54.6344 12.8504C54.5931 2.5703 39.0083 2.86845 39.0094 13.0011C38.9613 22.188 52.391 23.7073 54.5152 14.6336H49.7328C49.3375 14.6336 48.9559 14.8072 48.7188 15.1225C47.5329 16.7012 45.1141 15.9678 44.8426 13.9013H54.5737C54.6138 13.4215 54.6344 13.072 54.6344 12.8515V12.8504ZM44.9709 11.2453C45.5071 9.22337 48.6855 8.86696 48.9788 11.2453H44.9709Z" fill="#18243E"/>
<path d="M14.3844 5.42619H12.495C11.8854 5.42619 11.363 5.79288 11.1338 6.31608C11.0548 6.49657 11.0101 6.69649 11.0101 6.90668V12.2712C11.0101 13.1268 10.7225 13.9664 10.1588 14.6119C9.66263 15.1808 8.95913 15.6194 8.01386 15.7451C6.11874 15.9964 4.62809 15.0802 4.40695 13.4238C4.18582 11.7663 5.31899 10.3326 7.21411 10.0813C8.19948 9.95105 9.3865 10.2561 10.0957 10.8135V6.08076C10.0957 5.96995 10.0236 5.86942 9.91585 5.83858C9.1688 5.62039 8.14792 5.4022 7.31837 5.4319C3.34825 5.57355 0.105705 8.77329 0.00258506 12.7338C-0.10741 16.9674 3.30701 20.5784 7.53034 20.4413C9.30973 20.383 10.4372 19.7593 11.2633 19.0533C11.5314 19.3412 11.9874 19.7547 12.6554 20.0632C13.5228 20.463 14.554 20.4927 15.0455 20.463C15.1796 20.455 15.623 20.3453 15.623 20.2105V6.66107C15.623 5.97909 15.0684 5.42619 14.3844 5.42619Z" fill="#18243E"/>
<path d="M7.75262 10.9438C7.53607 10.986 6.82913 11.154 6.26999 11.8062C5.75668 12.4048 5.67075 13.0571 5.65241 13.2844C5.33733 12.7315 5.33274 12.0633 5.65241 11.5595C6.06375 10.9106 6.94943 10.6296 7.75377 10.9438H7.75262Z" fill="#18243E"/>
</svg>
